<svg width="46" height="42" viewBox="0 0 46 42" fill="none" xmlns="http://www.w3.org/2000/svg">
<g filter="url(#filter0_d_1_11)">
<path fill-rule="evenodd" clip-rule="evenodd" d="M21.4701 41.58C17.3601 41.58 15.4501 40.98 12.1301 38.58C10.0301 41.28 3.38008 43.39 3.09008 39.78C3.09008 37.07 2.49008 34.78 1.81008 32.28C1.00008 29.2 0.0800781 25.77 0.0800781 20.8C0.0800781 8.93 9.82008 0 21.3601 0C32.9101 0 41.9601 9.37 41.9601 20.91C41.9787 26.3666 39.8316 31.6076 35.9902 35.4829C32.1487 39.3581 26.9266 41.5509 21.4701 41.58ZM21.6401 10.26C16.0201 9.97 11.6401 13.86 10.6701 19.96C9.87008 25.01 11.2901 31.16 12.5001 31.48C13.0801 31.62 14.5401 30.44 15.4501 29.53C16.9548 30.5695 18.7071 31.1938 20.5301 31.34C23.3293 31.4746 26.0697 30.5057 28.1622 28.6414C30.2546 26.777 31.5321 24.1662 31.7201 21.37C31.8295 18.568 30.8346 15.8351 28.9495 13.7592C27.0643 11.6833 24.4396 10.4303 21.6401 10.27V10.26Z" fill="white"/>
</g>
<defs>
<filter id="filter0_d_1_11" x="-3.91992" y="0" width="49.8801" height="49.699" filterUnits="userSpaceOnUse" color-interpolation-filters="sRGB">
<feFlood flood-opacity="0" result="BackgroundImageFix"/>
<feColorMatrix in="SourceAlpha" type="matrix" values="0 0 0 0 0 0 0 0 0 0 0 0 0 0 0 0 0 0 127 0" result="hardAlpha"/>
<feOffset dy="4"/>
<feGaussianBlur stdDeviation="2"/>
<feComposite in2="hardAlpha" operator="out"/>
<feColorMatrix type="matrix" values="0 0 0 0 0 0 0 0 0 0 0 0 0 0 0 0 0 0 0.25 0"/>
<feBlend mode="normal" in2="BackgroundImageFix" result="effect1_dropShadow_1_11"/>
<feBlend mode="normal" in="SourceGraphic" in2="effect1_dropShadow_1_11" result="shape"/>
</filter>
</defs>
</svg>
