<svg width="80" height="80" viewBox="0 0 80 80" fill="none" xmlns="http://www.w3.org/2000/svg">
<path fill-rule="evenodd" clip-rule="evenodd" d="M5.62355 5.62355C0 11.2471 0 20.2981 0 38.4V41.6C0 59.7019 0 68.7529 5.62355 74.3765C11.2471 80 20.2981 80 38.4 80H41.6C59.7019 80 68.7529 80 74.3764 74.3765C79.9996 68.7529 79.9996 59.7019 79.9996 41.6V38.4C79.9996 20.2981 79.9996 11.2471 74.3764 5.62355C68.7529 0 59.7019 0 41.6 0H38.4C20.2981 0 11.2471 0 5.62355 5.62355ZM13.5001 24.3335C13.9335 45.1335 24.3334 57.6334 42.5667 57.6334H43.6002V45.7334C50.3002 46.4001 55.3665 51.3002 57.3999 57.6334H66.8668C64.2668 48.1668 57.4331 42.9334 53.1665 40.9334C57.4331 38.4668 63.4331 32.4668 64.8665 24.3335H56.2663C54.3995 30.9335 48.8669 36.9334 43.6002 37.5001V24.3335H34.9999V47.4001C29.6667 46.0668 22.9335 39.6002 22.6335 24.3335H13.5001Z" fill="white"/>
</svg>
